<!--?xml version="1.0" standalone="no"?-->
              <svg id="sw-js-blob-svg" viewBox="0 0 100 100" xmlns="http://www.w3.org/2000/svg" version="1.1">
                    <defs> 
                        <linearGradient id="sw-gradient" x1="0" x2="1" y1="1" y2="0">
                            <stop id="stop1" stop-color="rgba(248, 117, 55, 1)" offset="0%"></stop>
                            <stop id="stop2" stop-color="rgba(251, 168, 31, 1)" offset="100%"></stop>
                        </linearGradient>
                    </defs>
                <path fill="url(#sw-gradient)" d="M23.4,-28.4C28.9,-23.2,30.9,-14.5,32,-6C33,2.5,33,10.7,29.9,18.5C26.9,26.2,20.8,33.4,13.8,34.6C6.7,35.8,-1.4,30.9,-8.1,26.6C-14.7,22.2,-20,18.4,-25.1,12.9C-30.1,7.4,-35.1,0.2,-34.3,-6.4C-33.6,-13,-27.2,-18.9,-20.5,-23.9C-13.9,-28.9,-6.9,-32.9,1,-34.1C8.9,-35.3,17.8,-33.6,23.4,-28.4Z" width="100%" height="100%" transform="translate(50 50)" stroke-width="0" style="transition: all 0.3s ease 0s;" stroke="url(#sw-gradient)"></path>
              </svg>